<svg xmlns="http://www.w3.org/2000/svg" viewBox="0 0 912 912" width="912" height="912">
  <defs>
    <linearGradient id="grad" x1="0" y1="20" x2="0" y2="893" gradientUnits="userSpaceOnUse">
      <stop offset="0" stop-color="#FE744A"/>
      <stop offset="0.5" stop-color="#F05B2F"/>
      <stop offset="1" stop-color="#E24D20"/>
    </linearGradient>
  </defs>
  <path d="M75.0 46.0 75.0 52.0L74.0 53.0L68.0 53.0L68.0 59.0L67.0 60.0L61.0 60.0L60.0 61.0L60.0 67.0L59.0 68.0L53.0 68.0L53.0 74.0L52.0 75.0L46.0 75.0L46.0 82.0L45.0 83.0L39.0 83.0L38.0 96.0L37.0 97.0L31.0 97.0L31.0 111.0L30.0 112.0L24.0 112.0L24.0 126.0L23.0 127.0L17.0 127.0L17.0 141.0L16.0 142.0L16.0 769.0L17.0 770.0L17.0 784.0L23.0 784.0L24.0 785.0L24.0 799.0L30.0 799.0L31.0 800.0L31.0 814.0L37.0 814.0L38.0 815.0L39.0 828.0L45.0 828.0L46.0 829.0L46.0 836.0L52.0 836.0L53.0 837.0L53.0 843.0L59.0 843.0L60.0 844.0L60.0 850.0L61.0 851.0L67.0 851.0L68.0 852.0L68.0 858.0L74.0 858.0L75.0 859.0L75.0 865.0L82.0 865.0L83.0 866.0L83.0 872.0L96.0 873.0L97.0 874.0L97.0 880.0L111.0 880.0L112.0 881.0L112.0 887.0L126.0 887.0L127.0 888.0L127.0 894.0L141.0 894.0L142.0 895.0L769.0 895.0L770.0 894.0L784.0 894.0L784.0 888.0L785.0 887.0L799.0 887.0L799.0 881.0L800.0 880.0L814.0 880.0L814.0 874.0L815.0 873.0L828.0 872.0L828.0 866.0L829.0 865.0L836.0 865.0L836.0 859.0L837.0 858.0L843.0 858.0L843.0 852.0L844.0 851.0L850.0 851.0L851.0 850.0L851.0 844.0L852.0 843.0L858.0 843.0L858.0 837.0L859.0 836.0L865.0 836.0L865.0 829.0L866.0 828.0L872.0 828.0L873.0 815.0L874.0 814.0L880.0 814.0L880.0 800.0L881.0 799.0L887.0 799.0L887.0 785.0L888.0 784.0L894.0 784.0L894.0 770.0L895.0 769.0L895.0 142.0L894.0 141.0L894.0 127.0L888.0 127.0L887.0 126.0L887.0 112.0L881.0 112.0L880.0 111.0L880.0 97.0L874.0 97.0L873.0 96.0L872.0 83.0L866.0 83.0L865.0 82.0L865.0 75.0L859.0 75.0L858.0 74.0L858.0 68.0L852.0 68.0L851.0 67.0L851.0 61.0L850.0 60.0L844.0 60.0L843.0 59.0L843.0 53.0L837.0 53.0L836.0 52.0L836.0 46.0L829.0 46.0L828.0 45.0L828.0 39.0L815.0 38.0L814.0 37.0L814.0 31.0L800.0 31.0L799.0 30.0L799.0 24.0L785.0 24.0L784.0 23.0L784.0 17.0L770.0 17.0L769.0 16.0L142.0 16.0L141.0 17.0L127.0 17.0L127.0 23.0L126.0 24.0L112.0 24.0L112.0 30.0L111.0 31.0L97.0 31.0L97.0 37.0L96.0 38.0L83.0 39.0L83.0 45.0L82.0 46.0 Z" fill="url(#grad)"/>
  <path d="M504.0 723.0 505.0 734.0L507.0 734.0L506.0 723.0 Z M694.0 718.0 692.0 718.0L692.0 723.0L691.0 724.0L690.0 732.0L689.0 733.0L687.0 741.0L684.0 746.0L684.0 748.0L681.0 752.0L679.0 757.0L672.0 767.0L657.0 782.0L644.0 791.0L623.0 801.0L621.0 801.0L614.0 804.0L603.0 806.0L602.0 807.0L592.0 808.0L591.0 809.0L585.0 809.0L584.0 810.0L576.0 810.0L575.0 811.0L556.0 811.0L555.0 812.0L513.0 811.0L512.0 810.0L501.0 810.0L500.0 809.0L484.0 808.0L483.0 807.0L477.0 807.0L476.0 806.0L470.0 806.0L469.0 805.0L464.0 805.0L463.0 804.0L459.0 804.0L458.0 803.0L448.0 802.0L443.0 800.0L439.0 800.0L438.0 799.0L435.0 799.0L434.0 798.0L426.0 797.0L422.0 795.0L411.0 793.0L407.0 791.0L404.0 791.0L394.0 787.0L391.0 787.0L390.0 786.0L382.0 784.0L379.0 782.0L368.0 779.0L365.0 777.0L360.0 776.0L357.0 774.0L350.0 772.0L345.0 769.0L338.0 767.0L331.0 763.0L329.0 763.0L318.0 757.0L316.0 757.0L309.0 753.0L307.0 753.0L299.0 749.0L297.0 749.0L287.0 745.0L284.0 745.0L279.0 743.0L275.0 743.0L274.0 742.0L269.0 742.0L268.0 741.0L240.0 741.0L239.0 742.0L235.0 742.0L234.0 743.0L227.0 744.0L221.0 747.0L216.0 748.0L179.0 767.0L177.0 767.0L167.0 772.0L165.0 772.0L155.0 776.0L152.0 776.0L147.0 778.0L143.0 778.0L142.0 779.0L137.0 779.0L136.0 780.0L126.0 780.0L125.0 781.0L117.0 781.0L117.0 787.0L135.0 787.0L136.0 786.0L142.0 786.0L143.0 785.0L152.0 784.0L156.0 782.0L159.0 782.0L160.0 781.0L168.0 779.0L178.0 774.0L180.0 774.0L222.0 753.0L224.0 753.0L231.0 750.0L234.0 750.0L235.0 749.0L239.0 749.0L240.0 748.0L260.0 747.0L261.0 748.0L269.0 748.0L270.0 749.0L275.0 749.0L276.0 750.0L283.0 751.0L284.0 752.0L298.0 756.0L306.0 760.0L308.0 760.0L328.0 770.0L330.0 770.0L342.0 776.0L344.0 776.0L347.0 778.0L349.0 778.0L362.0 784.0L367.0 785.0L370.0 787.0L372.0 787.0L373.0 788.0L375.0 788.0L376.0 789.0L378.0 789.0L400.0 797.0L403.0 797.0L414.0 801.0L417.0 801.0L418.0 802.0L421.0 802.0L422.0 803.0L425.0 803.0L426.0 804.0L429.0 804.0L434.0 806.0L438.0 806.0L443.0 808.0L447.0 808.0L448.0 809.0L452.0 809.0L453.0 810.0L458.0 810.0L459.0 811.0L463.0 811.0L464.0 812.0L469.0 812.0L470.0 813.0L476.0 813.0L477.0 814.0L484.0 814.0L485.0 815.0L492.0 815.0L493.0 816.0L502.0 816.0L503.0 817.0L515.0 817.0L516.0 818.0L572.0 818.0L573.0 817.0L583.0 817.0L584.0 816.0L591.0 816.0L592.0 815.0L597.0 815.0L598.0 814.0L607.0 813.0L608.0 812.0L611.0 812.0L615.0 810.0L618.0 810.0L619.0 809.0L624.0 808.0L627.0 806.0L629.0 806.0L642.0 800.0L662.0 786.0L669.0 779.0L669.0 778.0L677.0 769.0L686.0 753.0L686.0 751.0L688.0 748.0L688.0 746.0L691.0 739.0L692.0 732.0L693.0 731.0 Z M646.0 695.0 644.0 695.0L638.0 698.0L636.0 700.0L622.0 707.0L620.0 707.0L611.0 712.0L609.0 712.0L606.0 714.0L604.0 714.0L601.0 716.0L599.0 716.0L596.0 718.0L594.0 718.0L587.0 721.0L584.0 721.0L583.0 722.0L580.0 722.0L579.0 723.0L576.0 723.0L571.0 725.0L562.0 726.0L557.0 728.0L537.0 731.0L536.0 732.0L531.0 732.0L530.0 733.0L525.0 733.0L524.0 734.0L519.0 734.0L518.0 735.0L506.0 736.0L506.0 743.0L511.0 743.0L512.0 742.0L517.0 742.0L518.0 741.0L523.0 741.0L524.0 740.0L541.0 738.0L542.0 737.0L546.0 737.0L547.0 736.0L551.0 736.0L552.0 735.0L557.0 735.0L562.0 733.0L566.0 733.0L567.0 732.0L571.0 732.0L572.0 731.0L587.0 728.0L588.0 727.0L602.0 723.0L605.0 721.0L612.0 719.0L621.0 714.0L623.0 714.0L646.0 702.0 Z M424.0 676.0 422.0 676.0L341.0 730.0L341.0 732.0L345.0 734.0L349.0 733.0L363.0 723.0L366.0 722.0L424.0 683.0 Z M165.0 677.0 366.0 677.0L368.0 675.0L371.0 674.0L372.0 673.0L372.0 671.0L167.0 671.0L165.0 674.0 Z M689.0 669.0 689.0 674.0L690.0 675.0L693.0 675.0L702.0 670.0L703.0 671.0L703.0 673.0L709.0 685.0L709.0 687.0L712.0 693.0L714.0 695.0L717.0 702.0L719.0 704.0L721.0 709.0L731.0 724.0L740.0 736.0L750.0 747.0L750.0 748.0L774.0 772.0L775.0 772.0L779.0 776.0L782.0 776.0L794.0 761.0L793.0 756.0L791.0 756.0L780.0 769.0L756.0 746.0L756.0 745.0L748.0 737.0L748.0 736.0L743.0 731.0L743.0 730.0L733.0 718.0L723.0 703.0L719.0 695.0L717.0 693.0L707.0 673.0L707.0 671.0L704.0 666.0L704.0 664.0L703.0 663.0L701.0 663.0 Z M641.0 658.0 634.0 642.0L631.0 642.0L616.0 652.0L594.0 663.0L592.0 663.0L587.0 666.0L585.0 666.0L577.0 670.0L569.0 672.0L566.0 674.0L564.0 674.0L560.0 676.0L557.0 676.0L547.0 680.0L544.0 680.0L540.0 682.0L529.0 684.0L525.0 686.0L522.0 686.0L521.0 687.0L518.0 687.0L517.0 688.0L514.0 688.0L509.0 690.0L506.0 690.0L505.0 689.0L504.0 683.0L502.0 679.0L499.0 679.0L499.0 681.0L501.0 684.0L501.0 686.0L503.0 690.0L504.0 697.0L509.0 697.0L510.0 696.0L513.0 696.0L514.0 695.0L517.0 695.0L518.0 694.0L533.0 691.0L534.0 690.0L540.0 689.0L544.0 687.0L547.0 687.0L551.0 685.0L554.0 685.0L555.0 684.0L575.0 678.0L578.0 676.0L583.0 675.0L593.0 670.0L595.0 670.0L619.0 658.0L631.0 650.0L634.0 652.0L638.0 661.0L640.0 661.0L641.0 660.0 Z M497.0 636.0 498.0 644.0L500.0 644.0L500.0 638.0L499.0 636.0 Z M794.0 627.0 792.0 624.0L789.0 624.0L780.0 629.0L778.0 629.0L769.0 634.0L767.0 634.0L758.0 639.0L756.0 639.0L747.0 644.0L745.0 644.0L736.0 649.0L737.0 654.0L741.0 654.0L757.0 646.0L759.0 646.0L768.0 641.0L770.0 641.0L779.0 636.0L781.0 636.0L790.0 631.0L792.0 631.0L794.0 630.0 Z M617.0 611.0 613.0 606.0L610.0 606.0L587.0 618.0L585.0 618.0L580.0 621.0L578.0 621.0L573.0 624.0L563.0 627.0L560.0 629.0L558.0 629.0L557.0 630.0L555.0 630.0L554.0 631.0L552.0 631.0L530.0 639.0L523.0 640.0L519.0 642.0L516.0 642.0L515.0 643.0L512.0 643.0L511.0 644.0L508.0 644.0L503.0 646.0L499.0 646.0L499.0 652.0L500.0 653.0L503.0 653.0L504.0 652.0L507.0 652.0L508.0 651.0L523.0 648.0L527.0 646.0L537.0 644.0L538.0 643.0L558.0 637.0L561.0 635.0L566.0 634.0L569.0 632.0L571.0 632.0L574.0 630.0L581.0 628.0L586.0 625.0L588.0 625.0L611.0 613.0L614.0 616.0L616.0 616.0L617.0 615.0 Z M223.0 641.0 226.0 641.0L228.0 639.0L242.0 611.0L455.0 611.0L456.0 610.0L456.0 604.0L241.0 604.0L223.0 639.0 Z M133.0 604.0 133.0 610.0L134.0 611.0L196.0 611.0L198.0 607.0L198.0 604.0 Z M648.0 594.0 650.0 597.0L652.0 597.0L659.0 593.0L661.0 593.0L680.0 584.0L741.0 584.0L741.0 578.0L676.0 578.0L667.0 583.0L665.0 583.0L648.0 591.0 Z M546.0 584.0 597.0 584.0L602.0 580.0L602.0 578.0L546.0 578.0 Z M758.0 570.0 758.0 576.0L794.0 576.0L794.0 570.0 Z M492.0 570.0 492.0 576.0L529.0 576.0L529.0 570.0 Z M257.0 574.0 260.0 574.0L261.0 573.0L275.0 544.0L277.0 542.0L437.0 542.0L437.0 535.0L275.0 535.0L257.0 571.0 Z M152.0 535.0 152.0 542.0L230.0 542.0L232.0 539.0L232.0 535.0 Z M528.0 533.0 528.0 539.0L759.0 539.0L759.0 533.0 Z M656.0 486.0 653.0 486.0L645.0 501.0L645.0 504.0L648.0 504.0L656.0 489.0 Z M303.0 486.0 300.0 486.0L292.0 501.0L292.0 504.0L295.0 504.0L303.0 489.0 Z M716.0 360.0 714.0 360.0L714.0 363.0L713.0 364.0L711.0 372.0L706.0 381.0L697.0 389.0L689.0 392.0L685.0 392.0L684.0 393.0L549.0 393.0L548.0 392.0L544.0 392.0L543.0 391.0L538.0 390.0L533.0 387.0L524.0 378.0L520.0 368.0L520.0 365.0L518.0 365.0L518.0 369.0L519.0 370.0L519.0 375.0L520.0 376.0L521.0 381.0L525.0 388.0L533.0 395.0L541.0 398.0L544.0 398.0L545.0 399.0L551.0 399.0L552.0 400.0L681.0 400.0L682.0 399.0L689.0 399.0L690.0 398.0L693.0 398.0L696.0 396.0L698.0 396.0L708.0 387.0L712.0 379.0L712.0 377.0L715.0 370.0 Z M715.0 353.0 715.0 358.0L717.0 358.0L717.0 353.0 Z M581.0 350.0 581.0 357.0L661.0 357.0L661.0 350.0 Z M716.0 346.0 716.0 350.0L718.0 350.0L718.0 346.0 Z M512.0 342.0 510.0 342.0L510.0 346.0L509.0 347.0L509.0 350.0L508.0 351.0L506.0 359.0L501.0 369.0L498.0 373.0L489.0 382.0L483.0 386.0L479.0 387.0L476.0 389.0L466.0 391.0L465.0 392.0L459.0 392.0L458.0 393.0L117.0 393.0L117.0 400.0L451.0 400.0L452.0 399.0L463.0 399.0L464.0 398.0L469.0 398.0L470.0 397.0L473.0 397.0L474.0 396.0L479.0 395.0L487.0 391.0L496.0 384.0L504.0 373.0L505.0 369.0L507.0 366.0L507.0 364.0L510.0 357.0L510.0 353.0L511.0 352.0L511.0 348.0L512.0 347.0 Z M717.0 337.0 717.0 342.0L719.0 342.0L719.0 337.0 Z M725.0 336.0 726.0 347.0L727.0 348.0L727.0 351.0L728.0 352.0L728.0 355.0L729.0 356.0L730.0 361.0L736.0 373.0L748.0 386.0L757.0 392.0L759.0 392.0L767.0 396.0L770.0 396.0L774.0 398.0L779.0 398.0L780.0 399.0L789.0 399.0L790.0 400.0L794.0 400.0L794.0 393.0L785.0 393.0L784.0 392.0L774.0 391.0L773.0 390.0L762.0 387.0L748.0 378.0L741.0 371.0L736.0 364.0L729.0 348.0L729.0 345.0L727.0 340.0L727.0 336.0 Z M511.0 334.0 511.0 338.0L513.0 338.0L513.0 334.0 Z M768.0 322.0 765.0 322.0L763.0 325.0L762.0 333.0L761.0 334.0L761.0 339.0L763.0 339.0L763.0 335.0L768.0 325.0 Z M471.0 322.0 471.0 325.0L475.0 330.0L477.0 334.0L477.0 336.0L479.0 336.0L479.0 330.0L476.0 323.0L475.0 322.0 Z M491.0 307.0 491.0 313.0L738.0 313.0L738.0 307.0 Z M303.0 284.0 303.0 290.0L409.0 290.0L409.0 284.0 Z M161.0 284.0 161.0 290.0L266.0 290.0L266.0 284.0 Z M526.0 264.0 526.0 271.0L703.0 271.0L703.0 264.0 Z M526.0 226.0 526.0 232.0L703.0 232.0L703.0 226.0 Z M455.0 193.0 455.0 199.0L774.0 199.0L774.0 193.0 Z M303.0 182.0 303.0 189.0L419.0 189.0L419.0 182.0 Z M266.0 182.0 183.0 182.0L177.0 190.0L169.0 198.0L169.0 199.0L140.0 228.0L139.0 228.0L125.0 240.0L117.0 245.0L117.0 251.0L120.0 251.0L129.0 245.0L133.0 241.0L139.0 237.0L148.0 228.0L149.0 228.0L163.0 214.0L163.0 213.0L174.0 202.0L174.0 201.0L185.0 189.0L266.0 189.0 Z M688.0 168.0 693.0 168.0L696.0 162.0L702.0 154.0L703.0 151.0L706.0 148.0L755.0 148.0L755.0 141.0L704.0 141.0L698.0 150.0L697.0 153.0L693.0 158.0L692.0 161.0L688.0 166.0 Z M563.0 141.0 563.0 144.0L566.0 148.0L661.0 148.0L665.0 143.0L665.0 141.0 Z M475.0 141.0 475.0 148.0L522.0 148.0L534.0 166.0L536.0 168.0L540.0 168.0L540.0 165.0L535.0 159.0L523.0 141.0 Z M213.0 121.0 211.0 121.0L209.0 124.0L209.0 126.0L207.0 129.0L205.0 136.0L202.0 141.0L200.0 148.0L203.0 148.0L206.0 143.0L206.0 141.0L208.0 138.0L208.0 136.0L213.0 125.0 Z M650.0 99.0 646.0 99.0L639.0 113.0L639.0 116.0L642.0 116.0L650.0 101.0 Z" fill="#B74E44" fill-rule="evenodd"/>
  <path d="M581.0 328.0 581.0 351.0L661.0 351.0L661.0 328.0 Z M725.0 317.0 725.0 331.0L726.0 332.0L726.0 339.0L727.0 340.0L728.0 348.0L729.0 349.0L731.0 357.0L735.0 365.0L740.0 372.0L748.0 380.0L764.0 389.0L774.0 391.0L775.0 392.0L780.0 392.0L781.0 393.0L794.0 393.0L794.0 371.0L786.0 370.0L777.0 366.0L767.0 357.0L766.0 354.0L764.0 352.0L764.0 350.0L762.0 346.0L762.0 332.0L763.0 331.0L765.0 323.0L768.0 319.0L768.0 317.0 Z M519.0 317.0 519.0 367.0L520.0 368.0L520.0 372.0L522.0 375.0L523.0 379.0L529.0 386.0L535.0 390.0L537.0 390.0L541.0 392.0L544.0 392.0L545.0 393.0L554.0 393.0L555.0 394.0L560.0 394.0L561.0 393.0L688.0 393.0L689.0 392.0L692.0 392.0L693.0 391.0L698.0 390.0L701.0 388.0L709.0 379.0L714.0 367.0L715.0 357.0L716.0 356.0L716.0 350.0L717.0 349.0L717.0 342.0L718.0 341.0L718.0 333.0L719.0 332.0L719.0 328.0L685.0 328.0L685.0 336.0L684.0 337.0L684.0 343.0L683.0 344.0L682.0 350.0L677.0 359.0L672.0 363.0L667.0 365.0L570.0 365.0L563.0 362.0L557.0 356.0L554.0 350.0L554.0 317.0 Z M491.0 203.0 491.0 307.0L737.0 307.0L737.0 203.0 Z M526.0 266.0 527.0 265.0L701.0 265.0L702.0 266.0L702.0 283.0L701.0 284.0L527.0 284.0L526.0 283.0 Z M526.0 228.0 528.0 226.0L701.0 226.0L702.0 227.0L702.0 245.0L701.0 246.0L528.0 246.0L526.0 244.0 Z M456.0 167.0 456.0 193.0L773.0 193.0L773.0 167.0L691.0 167.0L690.0 166.0L698.0 154.0L699.0 151.0L703.0 146.0L704.0 143.0L706.0 141.0L755.0 141.0L755.0 116.0L640.0 116.0L639.0 115.0L648.0 97.0L650.0 95.0L650.0 93.0L602.0 93.0L592.0 114.0L590.0 116.0L475.0 116.0L475.0 141.0L521.0 141.0L524.0 144.0L534.0 160.0L539.0 166.0L538.0 167.0 Z M564.0 143.0 565.0 141.0L663.0 141.0L664.0 142.0L655.0 155.0L650.0 164.0L647.0 167.0L581.0 167.0 Z M172.0 116.0 172.0 119.0L171.0 120.0L165.0 140.0L151.0 170.0L136.0 192.0L117.0 212.0L117.0 245.0L120.0 245.0L140.0 230.0L159.0 212.0L159.0 211.0L172.0 198.0L172.0 197.0L185.0 183.0L265.0 183.0L266.0 184.0L266.0 248.0L265.0 249.0L161.0 249.0L161.0 284.0L265.0 284.0L266.0 285.0L266.0 361.0L264.0 363.0L117.0 363.0L117.0 394.0L184.0 394.0L185.0 393.0L462.0 393.0L463.0 392.0L473.0 391.0L487.0 385.0L500.0 373.0L506.0 362.0L506.0 360.0L509.0 353.0L509.0 350.0L510.0 349.0L511.0 339.0L512.0 338.0L513.0 317.0L471.0 317.0L471.0 319.0L474.0 322.0L478.0 330.0L478.0 333.0L479.0 334.0L478.0 343.0L475.0 349.0L468.0 356.0L461.0 360.0L455.0 361.0L454.0 362.0L439.0 362.0L438.0 363.0L305.0 363.0L304.0 362.0L304.0 285.0L305.0 284.0L408.0 284.0L408.0 249.0L305.0 249.0L304.0 248.0L304.0 184.0L305.0 183.0L419.0 183.0L419.0 148.0L305.0 148.0L304.0 147.0L304.0 93.0L266.0 93.0L266.0 146.0L264.0 148.0L202.0 148.0L201.0 146.0L205.0 139.0L205.0 137.0L211.0 124.0L213.0 116.0 Z" fill="#FFFFFF" fill-rule="evenodd"/>
  <path d="M492.0 503.0 492.0 570.0L528.0 570.0L528.0 535.0L530.0 533.0L757.0 533.0L759.0 535.0L759.0 570.0L794.0 570.0L794.0 503.0L647.0 503.0L646.0 502.0L656.0 483.0L656.0 481.0L608.0 481.0L597.0 503.0 Z M152.0 503.0 152.0 536.0L230.0 536.0L231.0 537.0L213.0 573.0L134.0 573.0L134.0 604.0L196.0 604.0L197.0 605.0L165.0 669.0L165.0 671.0L369.0 671.0L370.0 672.0L360.0 679.0L352.0 683.0L347.0 687.0L334.0 694.0L329.0 698.0L326.0 699.0L309.0 710.0L307.0 710.0L305.0 708.0L286.0 699.0L284.0 699.0L280.0 697.0L277.0 697.0L276.0 696.0L272.0 696.0L271.0 695.0L252.0 694.0L251.0 695.0L244.0 695.0L243.0 696.0L240.0 696.0L239.0 697.0L234.0 698.0L215.0 708.0L173.0 737.0L158.0 745.0L156.0 747.0L148.0 751.0L146.0 751.0L141.0 754.0L139.0 754.0L132.0 757.0L117.0 759.0L117.0 781.0L134.0 781.0L135.0 780.0L141.0 780.0L142.0 779.0L147.0 779.0L148.0 778.0L159.0 776.0L160.0 775.0L168.0 773.0L171.0 771.0L173.0 771.0L178.0 768.0L180.0 768.0L222.0 747.0L224.0 747.0L231.0 744.0L238.0 743.0L239.0 742.0L246.0 742.0L247.0 741.0L262.0 741.0L263.0 742.0L270.0 742.0L271.0 743.0L275.0 743.0L276.0 744.0L283.0 745.0L284.0 746.0L301.0 751.0L306.0 754.0L308.0 754.0L313.0 757.0L315.0 757.0L326.0 763.0L328.0 763.0L342.0 770.0L344.0 770.0L347.0 772.0L349.0 772.0L362.0 778.0L367.0 779.0L370.0 781.0L372.0 781.0L373.0 782.0L375.0 782.0L397.0 790.0L400.0 790.0L404.0 792.0L407.0 792.0L411.0 794.0L418.0 795.0L426.0 798.0L430.0 798.0L431.0 799.0L434.0 799.0L439.0 801.0L443.0 801.0L444.0 802.0L448.0 802.0L449.0 803.0L453.0 803.0L454.0 804.0L458.0 804.0L459.0 805.0L464.0 805.0L465.0 806.0L470.0 806.0L471.0 807.0L477.0 807.0L478.0 808.0L485.0 808.0L486.0 809.0L493.0 809.0L494.0 810.0L518.0 811.0L519.0 812.0L569.0 812.0L570.0 811.0L582.0 811.0L583.0 810.0L590.0 810.0L591.0 809.0L602.0 808.0L603.0 807.0L614.0 805.0L615.0 804.0L629.0 800.0L645.0 792.0L647.0 790.0L653.0 787.0L662.0 779.0L663.0 779.0L674.0 767.0L684.0 751.0L684.0 749.0L687.0 744.0L687.0 742.0L690.0 736.0L690.0 733.0L692.0 728.0L692.0 724.0L693.0 723.0L693.0 716.0L694.0 715.0L694.0 691.0L693.0 690.0L692.0 679.0L689.0 671.0L702.0 664.0L704.0 667.0L706.0 674.0L716.0 694.0L718.0 696.0L720.0 701.0L724.0 706.0L729.0 715.0L732.0 718.0L737.0 726.0L745.0 735.0L745.0 736.0L751.0 742.0L751.0 743.0L774.0 766.0L775.0 766.0L779.0 770.0L782.0 770.0L794.0 755.0L793.0 751.0L779.0 733.0L769.0 718.0L768.0 715.0L764.0 710.0L759.0 700.0L757.0 698.0L743.0 669.0L743.0 667.0L740.0 661.0L739.0 655.0L737.0 651.0L738.0 649.0L746.0 645.0L748.0 645.0L757.0 640.0L759.0 640.0L768.0 635.0L770.0 635.0L779.0 630.0L781.0 630.0L790.0 625.0L794.0 624.0L794.0 622.0L777.0 588.0L775.0 588.0L769.0 591.0L767.0 593.0L750.0 601.0L748.0 603.0L692.0 631.0L690.0 631.0L676.0 638.0L672.0 630.0L670.0 628.0L667.0 621.0L662.0 614.0L660.0 609.0L650.0 594.0L650.0 592.0L651.0 591.0L680.0 578.0L741.0 578.0L741.0 551.0L546.0 551.0L546.0 578.0L600.0 578.0L601.0 579.0L581.0 594.0L578.0 595.0L571.0 600.0L545.0 613.0L543.0 613.0L538.0 616.0L536.0 616.0L523.0 622.0L518.0 623.0L515.0 625.0L498.0 630.0L497.0 631.0L497.0 634.0L499.0 638.0L500.0 647.0L507.0 646.0L508.0 645.0L511.0 645.0L512.0 644.0L515.0 644.0L520.0 642.0L523.0 642.0L527.0 640.0L537.0 638.0L538.0 637.0L558.0 631.0L561.0 629.0L566.0 628.0L569.0 626.0L571.0 626.0L574.0 624.0L581.0 622.0L586.0 619.0L588.0 619.0L611.0 607.0L612.0 607.0L616.0 612.0L616.0 614.0L599.0 628.0L590.0 634.0L587.0 635.0L585.0 637.0L578.0 640.0L576.0 642.0L553.0 653.0L551.0 653.0L546.0 656.0L544.0 656.0L541.0 658.0L539.0 658.0L526.0 664.0L521.0 665.0L518.0 667.0L516.0 667.0L510.0 670.0L500.0 673.0L500.0 676.0L503.0 683.0L504.0 690.0L505.0 691.0L508.0 691.0L509.0 690.0L513.0 690.0L514.0 689.0L529.0 686.0L533.0 684.0L540.0 683.0L544.0 681.0L554.0 679.0L555.0 678.0L575.0 672.0L578.0 670.0L583.0 669.0L593.0 664.0L595.0 664.0L619.0 652.0L632.0 643.0L634.0 645.0L640.0 659.0L629.0 668.0L617.0 676.0L607.0 681.0L605.0 683.0L582.0 694.0L580.0 694.0L572.0 698.0L567.0 699.0L564.0 701.0L562.0 701.0L552.0 705.0L549.0 705.0L539.0 709.0L536.0 709.0L532.0 711.0L529.0 711.0L528.0 712.0L525.0 712.0L524.0 713.0L521.0 713.0L517.0 715.0L514.0 715.0L513.0 716.0L510.0 716.0L509.0 717.0L504.0 718.0L505.0 726.0L506.0 727.0L506.0 737.0L517.0 736.0L518.0 735.0L523.0 735.0L524.0 734.0L529.0 734.0L530.0 733.0L535.0 733.0L536.0 732.0L540.0 732.0L541.0 731.0L546.0 731.0L547.0 730.0L551.0 730.0L552.0 729.0L556.0 729.0L557.0 728.0L561.0 728.0L562.0 727.0L566.0 727.0L571.0 725.0L575.0 725.0L576.0 724.0L587.0 722.0L588.0 721.0L602.0 717.0L612.0 712.0L614.0 712.0L621.0 708.0L623.0 708.0L639.0 700.0L645.0 696.0L646.0 697.0L646.0 700.0L645.0 701.0L644.0 709.0L636.0 725.0L621.0 741.0L608.0 750.0L589.0 759.0L587.0 759.0L580.0 762.0L569.0 764.0L568.0 765.0L558.0 766.0L557.0 767.0L550.0 767.0L549.0 768.0L537.0 768.0L536.0 769.0L502.0 769.0L501.0 768.0L488.0 768.0L487.0 767.0L469.0 766.0L468.0 765.0L462.0 765.0L461.0 764.0L455.0 764.0L454.0 763.0L443.0 762.0L442.0 761.0L438.0 761.0L437.0 760.0L433.0 760.0L432.0 759.0L428.0 759.0L427.0 758.0L423.0 758.0L418.0 756.0L414.0 756.0L413.0 755.0L406.0 754.0L402.0 752.0L395.0 751.0L391.0 749.0L388.0 749.0L387.0 748.0L367.0 742.0L364.0 740.0L362.0 740.0L354.0 736.0L352.0 736.0L343.0 731.0L424.0 677.0L424.0 640.0L226.0 640.0L225.0 639.0L241.0 606.0L243.0 604.0L455.0 604.0L455.0 573.0L259.0 573.0L258.0 572.0L275.0 538.0L277.0 536.0L437.0 536.0L437.0 503.0L294.0 503.0L293.0 502.0L303.0 483.0L303.0 481.0L259.0 481.0L248.0 503.0 Z" fill="#FAD5CA" fill-rule="evenodd"/>
</svg>